<?xml version="1.0" standalone="no"?><!DOCTYPE svg PUBLIC "-//W3C//DTD SVG 1.1//EN" "http://www.w3.org/Graphics/SVG/1.1/DTD/svg11.dtd"><svg t="1552981315702" class="icon" style="" viewBox="0 0 1024 1024" version="1.1" xmlns="http://www.w3.org/2000/svg" p-id="40705" xmlns:xlink="http://www.w3.org/1999/xlink" width="200" height="200"><defs><style type="text/css"></style></defs><path d="M298.583727 490.530408s127.964454-67.394613 106.637045-170.619272c0 0 259.341294 14.218273 319.911136 234.601499 0 0 125.405165-435.647876-319.911136-341.238544-177.444043 37.820605-138.485976 309.389614-106.637045 277.256317z" fill="#bfbfbf" p-id="40706"></path><path d="M824.944182 827.787837l-126.542627-170.619273a40.095529 40.095529 0 0 0-56.873091-10.521522 44.929742 44.929742 0 0 0-10.237156 60.569842l126.542627 170.619273a40.095529 40.095529 0 0 0 56.873091 10.521521 44.929742 44.929742 0 0 0 10.237156-60.569841zM190.240489 836.603166l71.375729-100.949736a42.654818 42.654818 0 1 1 69.669536 48.910858l-71.375729 100.949736a42.654818 42.654818 0 0 1-69.669536-48.910858z" fill="#bfbfbf" p-id="40707"></path><path d="M501.336295 170.619272c-147.301305 0-266.45043 128.817551-266.45043 287.77784s119.433491 287.777839 266.45043 287.777839S767.786726 617.357401 767.786726 458.397112 648.353235 170.619272 501.336295 170.619272z m0 503.895585a216.402111 216.402111 0 1 1 202.468204-215.83338 209.57734 209.57734 0 0 1-202.468204 215.83338z" fill="#bfbfbf" p-id="40708"></path><path d="M512.142183 0a511.857817 511.857817 0 1 0 511.857817 511.857817 511.857817 511.857817 0 0 0-511.857817-511.857817z m0 938.405998a426.548181 426.548181 0 1 1 426.548181-426.548181 426.548181 426.548181 0 0 1-426.548181 426.548181z" fill="#bfbfbf" p-id="40709"></path></svg>