<?xml version="1.0" standalone="no"?><!DOCTYPE svg PUBLIC "-//W3C//DTD SVG 1.1//EN" "http://www.w3.org/Graphics/SVG/1.1/DTD/svg11.dtd"><svg t="1552981616322" class="icon" style="" viewBox="0 0 1024 1024" version="1.1" xmlns="http://www.w3.org/2000/svg" p-id="44689" xmlns:xlink="http://www.w3.org/1999/xlink" width="200" height="200"><defs><style type="text/css"></style></defs><path d="M783.355733 402.962133c-8.826667-5.5776-20.493867-3.073067-26.256 5.633067-50.183467 79.400533-144.0544 128.696533-245.003733 128.696533-100.9472 0-194.842667-49.320533-245.018667-128.695466a19.194667 19.194667 0 0 0-33.4976 1.0944 19.170133 19.170133 0 0 0-2.100266 7.733333v2.241067a19.162667 19.162667 0 0 0 3.1488 9.428266c57.1456 90.426667 163.469867 146.574933 277.467733 146.574934 113.9776 0 220.299733-56.148267 277.453867-146.574934 5.3856-8.945067 2.6336-20.554667-6.194134-26.1312z" fill="#666666" p-id="44690"></path><path d="M413.329067 664.194133a21.8624 21.8624 0 0 1-3.326934-0.2752c-10.452267-1.822933-17.4464-11.770667-15.624533-22.224l14.910933-85.473066c1.831467-10.456533 11.792-17.448533 22.247467-15.618134 10.4544 1.831467 17.4464 11.792 15.616 22.247467l-14.909867 85.473067c-1.616 9.1776-9.5776 15.8784-18.897066 15.898666m195.3984 0.001067a19.2096 19.2096 0 0 1-18.769067-15.3248l-17.696-85.505067c-2.100267-10.369067 4.581333-20.482133 14.941867-22.618666 10.362667-2.136533 20.498133 4.510933 22.670933 14.865066l17.648 85.4752a19.1744 19.1744 0 0 1-14.910933 22.6688 18.709333 18.709333 0 0 1-3.9232 0.401067m-325.666134-63.1008a18.830933 18.830933 0 0 1-6.576-1.1776 19.154133 19.154133 0 0 1-11.4656-24.593067l31.224534-85.537066c3.632-9.956267 14.6464-15.0816 24.6016-11.4496 9.9552 3.633067 15.0816 14.6464 11.4496 24.6016l-31.224534 85.536a19.173333 19.173333 0 0 1-18.049066 12.6272m455.933866 14.250666a19.186133 19.186133 0 0 1-17.851733-12.123733l-33.925333-85.536c-3.562667-9.771733 1.306667-20.602667 10.977066-24.432 9.6704-3.825067 20.631467 0.743467 24.721067 10.308267l33.925333 85.534933a19.214933 19.214933 0 0 1-1.9712 17.863467 19.208533 19.208533 0 0 1-15.8816 8.4096" fill="#666666" p-id="44691"></path></svg>