<?xml version="1.0" standalone="no"?><!DOCTYPE svg PUBLIC "-//W3C//DTD SVG 1.1//EN" "http://www.w3.org/Graphics/SVG/1.1/DTD/svg11.dtd"><svg t="1553064540157" class="icon" style="" viewBox="0 0 1024 1024" version="1.1" xmlns="http://www.w3.org/2000/svg" p-id="13242" xmlns:xlink="http://www.w3.org/1999/xlink" width="200" height="200"><defs><style type="text/css"></style></defs><path d="M140.818638 836.959715c-26.672707-26.507038 0-265.070377 0-265.070377l213.547322-210.56528a172.130076 172.130076 0 0 1 243.036402 0l22.199644 22.033975a172.627083 172.627083 0 0 1 0 243.202071l-213.712991 210.399611s-238.563339 26.507038-265.070377 0z" fill="#e55d13" p-id="13243"></path><path d="M229.451545 882.187348c-90.455266 0-105.696813-15.407216-112.157903-21.702637-9.277463-9.443132-37.772529-37.772529-9.443132-292.405759a33.133797 33.133797 0 0 1 9.443132-19.71461L605.685811 59.972173a205.098204 205.098204 0 0 1 289.920725 0L917.80618 82.834493a205.595211 205.595211 0 0 1 0 290.086394L429.414011 860.484711a33.133797 33.133797 0 0 1-19.880279 9.443132 1675.907458 1675.907458 0 0 1-180.082187 12.259505z m-62.12587-64.445235zM165.503317 811.778029c30.648762 6.958097 134.854554 2.485035 225.30982-6.958097l480.440058-480.440058a138.83061 138.83061 0 0 0 0-196.317748L848.887882 106.856496a138.83061 138.83061 0 0 0-196.317748 0l-480.440058 480.440058c-9.111794 90.123928-13.750526 194.164051-6.626759 224.481475zM962.039799 1024H61.960201a33.133797 33.133797 0 0 1 0-66.267594h900.079598a33.133797 33.133797 0 0 1 0 66.267594z" fill="#3D3D3D" p-id="13244"></path></svg>