<?xml version="1.0" standalone="no"?><!DOCTYPE svg PUBLIC "-//W3C//DTD SVG 1.1//EN" "http://www.w3.org/Graphics/SVG/1.1/DTD/svg11.dtd"><svg t="1553063277310" class="icon" style="" viewBox="0 0 1024 1024" version="1.1" xmlns="http://www.w3.org/2000/svg" p-id="4180" xmlns:xlink="http://www.w3.org/1999/xlink" width="200" height="200"><defs><style type="text/css"></style></defs><path d="M510.07409 867.096795a509.725401 509.725401 0 0 0 503.706729-433.548398 510.056938 510.056938 0 1 1-1007.362452 0A509.725401 509.725401 0 0 0 510.07409 867.096795z" fill="#CEF0E4" p-id="4181"></path><path d="M510.07409 1020.113876a510.056938 510.056938 0 1 1 510.056938-510.056938 510.056938 510.056938 0 0 1-510.056938 510.056938z m0-969.108182a459.051244 459.051244 0 1 0 459.051244 459.051244A459.051244 459.051244 0 0 0 510.07409 51.005694z m-37.616699 667.332995a25.502847 25.502847 0 0 1-36.061026 0l-172.858296-172.858297a25.502847 25.502847 0 0 1 36.061026-36.061025l154.827783 154.827783 291.625055-291.625054a25.502847 25.502847 0 0 1 36.061025 36.061026z" fill="#0BB27A" p-id="4182"></path></svg>