<?xml version="1.0" standalone="no"?><!DOCTYPE svg PUBLIC "-//W3C//DTD SVG 1.1//EN" "http://www.w3.org/Graphics/SVG/1.1/DTD/svg11.dtd"><svg t="1552979705726" class="icon" style="" viewBox="0 0 1024 1024" version="1.1" xmlns="http://www.w3.org/2000/svg" p-id="1558" xmlns:xlink="http://www.w3.org/1999/xlink" width="200" height="200"><defs><style type="text/css"></style></defs><path d="M512.429357 154.123179c73.626735 0 147.253471-0.318042 220.91201 0.095413 65.834705 0.38165 119.074945 51.236575 119.552008 117.103084 1.049539 145.663261 1.049539 291.358325 0 437.021586-0.477063 65.866509-53.685499 116.657825-119.774637 116.84865-147.794142 0.38165-295.588285 0.38165-443.350623 0.031804-62.972327-0.127217-114.081685-48.660434-118.852315-111.537348-0.477063-6.329037-0.60428-12.689878-0.60428-19.050719-0.031804-136.66267-0.063608-273.357145 0-410.019815 0.031804-80.750877 49.805386-130.492655 130.747088-130.651676 70.446315-0.127217 140.924434-0.031804 211.370749-0.031804v0.190825z" fill="#123450" p-id="1559"></path><path d="M216.332205 550.308165c3.498463-30.659254 6.615275-59.569277 10.113737-88.415691 5.756561-47.356462 5.21589-95.094574 8.809765-142.578252 1.876448-24.80728 2.385315-49.709973 3.371246-74.580862 0.445259-11.385906 6.010995-18.82809 16.601795-22.708202 43.062894-15.870298 86.030376-31.931422 129.220486-47.451875 15.584061-5.59754 25.188931-0.60428 31.168122 15.075194 5.82017 15.266019 11.067863 30.786471 16.888033 46.052489 9.286828 24.42563 27.383421 37.115508 53.240239 38.069634 18.00118 0.667888 36.065969 0.763301 54.035345-0.063609 25.188931-1.144951 42.80846-13.898438 51.904464-37.624375 5.851974-15.266019 11.067863-30.786471 16.888033-46.084293 6.010995-15.679473 14.947977-20.19567 31.231729-15.297823 42.458614 12.753486 84.790011 25.888623 127.216822 38.673914 12.912507 3.880113 18.541852 11.831164 18.732677 25.602385 0.858714 61.445725 2.258099 122.859645 3.752896 184.30537 0.98593 40.359537 10.940647 79.542318 17.01525 119.202162 1.653819 10.749821 0.38165 19.654999-6.074603 28.305743-37.624375 50.409665-74.962512 101.010156-112.6823 151.324409-9.922912 13.230549-24.616455 16.061124-35.398081 3.593875-23.185266-26.810945-52.095288-30.02317-84.599186-28.782806-42.872069 1.622014-85.83955 0.731497-128.743423 0.22263-15.774886-0.190825-28.941827 4.039134-39.882474 15.647669-5.056869 5.374911-11.004255 9.954716-16.856229 14.439109-11.735752 9.00059-24.743672 8.587135-33.744261-2.512532-42.045159-51.713638-83.64506-103.777122-125.435786-155.71339-4.866043-5.979191-8.173681-12.435444-6.774296-18.700873z" fill="#F5DA65" p-id="1560"></path><path d="M309.359506 805.950368c-72.100134 5.565736-121.237631-39.182781-121.333044-106.830326-0.159021-139.811287-0.190825-279.590769 0-419.402056 0.095413-62.84511 44.048824-106.703109 106.798522-107.275585 11.036059-0.095413 22.103923 0 33.871478 2.830575-23.376091 8.714352-46.752182 17.492313-70.160077 26.174861-30.881883 11.449514-37.687983 21.117992-39.087368 53.62189-4.134547 97.225456-6.519862 194.578128-21.531447 290.976675-2.226294 14.248284 8.650744 26.365686 5.565736 40.359536-5.724757 25.856819 4.420785 46.974811 17.651334 68.156413 16.220145 25.984036 30.659254 53.113023 45.893468 79.733142 6.774296 11.831164 13.548591 22.99444 14.025655 37.878809 0.477063 14.947977 10.81343 25.665994 28.305743 33.776066zM705.798925 173.746374c59.124018-7.41038 102.950213 15.615865 122.605212 64.371712 5.438519 13.453179 7.378576 27.574246 7.378576 41.917942 0.063608 139.906699 0.222629 279.813399-0.031805 419.688294-0.095413 60.332578-44.144237 106.893934-100.43768 107.211976-1.876448 0-3.7847-0.477063-7.664814-1.017734 17.842159-14.089263 27.542442-29.673324 20.291083-51.554617-1.685623-5.120477 2.512532-8.905178 4.802435-12.944312 20.640929-36.320403 41.154642-72.704413 62.24083-108.770382 4.770631-8.173681 7.028729-16.061124 6.329037-25.506973-1.144951-15.774886-1.367581-31.295338 3.498463-47.006615 4.325372-13.930242-1.526602-28.305743-4.388981-42.108768-18.382831-88.956362-12.848899-179.248501-15.58406-269.031773-1.081343-35.334472-7.664813-45.575426-41.345467-56.03901-19.082523-5.915582-38.196851-11.79936-57.279374-17.746747-0.254434-0.063608-0.286238-0.954126-0.413455-1.462993z" fill="#EA5B5A" p-id="1561"></path><path d="M299.56381 767.84893c-0.572476-20.259279 9.064199-38.864739 9.382241-62.62248 9.096003 11.067863 16.061124 19.941237 23.439699 28.464763 19.559586 22.676398 43.730782 25.475168 64.65795 4.548002 18.669069-18.669069 38.928347-25.379756 65.135012-24.171196 43.826195 2.003665 87.843215 0.826909 131.764823 0.38165 11.79936-0.127217 20.958971 3.212225 30.054974 11.067864 42.299593 36.511228 48.119763 35.684318 93.345343-10.240954 3.816505 18.255614 12.467249 34.380346 13.675808 52.604155-3.625679 5.152281-9.064199 7.028729-14.820759 8.491723-5.661149 1.431189-11.640339 1.781036-17.078859 3.752896-34.602975 12.467249-65.294034 8.01466-91.914153-19.050719-7.982856-8.141877-19.146132-10.877038-30.754667-10.908842-37.115508-0.031804-74.199211 0-111.314719-0.031804-10.463584 0-19.782216 3.053204-28.401155 8.77796-8.841569 5.851974-17.651334 11.767556-26.524707 17.555922-5.343107 3.498463-10.81343 7.219555-17.174271 8.014659-32.82194 4.229959-63.862844-2.385315-93.47256-16.633599z" fill="#F5DA65" p-id="1562"></path><path d="M587.900736 193.433177c-5.056869 13.6122-9.477653 27.701463-15.456844 41.091033-6.138212 13.739417-18.064789 20.609125-32.917352 21.054384-17.969376 0.540671-36.00236 0.636084-53.971737 0-19.114327-0.667888-30.659254-11.258689-37.147312-29.164456-12.848899-35.461689-13.198745-35.334472 24.616455-35.334472 32.82194 0 65.612076-0.063608 98.434016 0.063608 5.120477 0.063608 10.495388-1.335777 16.442774 2.289903z" fill="#EA5B5A" p-id="1563"></path><path d="M299.56381 767.84893c22.135727 4.484393 44.335062 8.809765 66.438985 13.453179 15.20241 3.212225 29.546107 1.526602 41.472684-8.650744 26.429295-22.517377 56.388856-30.563841 90.928223-27.351617 23.089853 2.162686 46.561357 1.20856 69.778427 0.159021 19.750412-0.890518 35.843339 4.738827 50.155232 18.541852 16.347362 15.743082 35.493493 23.59872 59.028605 16.760816 17.651334-5.120477 35.779731-8.650744 53.685498-12.880703 1.240364 9.922912-3.498463 16.188341-12.371835 19.591391-16.760816 6.392645-33.553437 12.689878-50.377862 18.859894-9.00059 3.307637-17.142467 1.017735-22.99444-6.0428-29.482498-35.461689-67.520328-46.21151-112.046216-41.122837-14.629934 1.685623-29.736932 1.558406-44.39867 0-32.344877-3.40305-59.569277 6.551666-81.991242 29.259869-18.255614 18.510048-37.719788 22.867224-61.223095 10.527192-9.700283-5.088673-20.672733-7.696618-31.072709-11.449514-9.22322-3.307637-15.42504-8.968786-15.011585-19.654999z" fill="#D1BA55" p-id="1564"></path><path d="M415.744572 806.013976c18.669069-18.064789 36.447619-30.468429 62.46346-28.751001 27.955897 1.844644 56.198031 1.844644 84.122123 0 25.506973-1.717427 43.349132 8.905178 59.537472 28.751001h-206.123055z" fill="#EA5B5A" p-id="1565"></path><path d="M285.919806 731.083269c-23.153462-44.939342-50.314253-82.500109-65.516663-126.389912 12.880703 8.046464 19.146132 20.768146 27.288008 31.899618 11.831164 16.156536 22.99444 32.82194 34.571172 49.169301 9.00059 12.62627 9.60487 26.01584 3.657483 45.320993z" fill="#E95B5A" p-id="1566"></path><path d="M799.971177 603.230363c4.961456 5.438519 4.38898 10.20915 2.003665 14.439109-20.227475 35.747927-40.645774 71.368637-61.795571 108.452341-7.537597-16.665404-4.834239-29.705128 3.911918-42.235985 18.446439-26.492903 36.765661-53.049415 55.879988-80.655465z" fill="#E85B5A" p-id="1567"></path><path d="M594.166165 172.696835h-164.1097v-1.558406h164.046091c0.031804 0.508867 0.031804 1.049539 0.063609 1.558406z" fill="#644254" p-id="1568"></path><path d="M305.511197 389.378886c57.661024 6.297233 111.791782 12.117402 165.890735 18.096593 38.133242 4.229959 75.948442 1.176756 113.827251-3.530267 42.999286-5.374911 86.093984-9.954716 129.220486-14.184675 20.736342-2.035469 36.892878 18.669069 30.786471 38.260459-2.035469 6.551666-4.802435 12.880703-6.360841 19.527782-2.258099 9.541262-8.587135 12.594465-17.365096 15.711277-42.80846 15.266019-85.139858 16.092928-127.725689-0.413454-5.374911-2.067273-11.19508-3.244029-16.919837-4.102743-14.089263-2.130882-22.517377-8.587135-20.259279-24.234804 1.240364-8.491723-3.0214-8.936982-10.272758-8.173681-22.644594 2.353511-45.448209 3.116812-68.029196-0.60428-8.61894-1.399385-11.703948 0.922322-10.781625 9.541262 1.399385 13.357766-4.452589 20.895363-18.128397 22.771811-7.823835 1.081343-15.80669 2.639749-23.058049 5.59754-41.727117 16.983446-83.04078 14.025655-124.577073-0.667889-12.02199-4.261764-27.701463-32.790136-25.252539-48.374196 1.781036-11.576731 20.19567-25.697798 29.005436-25.220735z" fill="#123450" p-id="1569"></path><path d="M725.199491 427.798366c-0.095413 12.40364-7.155946 16.220145-18.446439 20.831755-43.317328 17.746747-83.64506 3.116812-124.70429-7.473988-6.519862-1.685623-6.869708-5.152281-6.170016-10.240955 3.752896-4.102742 8.523527-5.756561 13.993851-6.329036 39.214585-4.039134 78.42917-8.300898 117.643755-12.308228 14.311892-1.399385 18.096593 2.226294 17.683139 15.520452zM448.121254 430.978787c0.922322 5.120477 0.508867 8.61894-6.042799 10.145541-24.012175 5.629344-47.547287 14.725347-71.813896 17.206075-22.294748 2.289903-44.271454-7.41038-65.516663-14.439109-6.678883-2.19449-6.8061-14.470913-8.936982-22.517377 4.738827-5.82017 11.19508-8.269093 18.319222-7.569401 42.42681 4.261764 85.012641 6.996925 127.185018 13.325962 2.639749 0.413455 4.834239 2.035469 6.8061 3.848309z" fill="#FFFFFF" p-id="1570"></path><path d="M448.121254 430.978787c-40.963817-4.039134-81.959437-7.887443-122.923254-12.181011-10.113737-1.049539-19.81402-0.540671-29.41889 2.607945 0-9.954716 5.915582-14.439109 14.852564-13.580396 43.953412 4.261764 87.811411 9.064199 131.764823 13.484983 6.996925 0.667888 7.537597 4.229959 5.724757 9.668479z" fill="#DEE5ED" p-id="1571"></path><path d="M725.199491 427.798366c0.349846-9.922912-5.979191-13.294158-14.184676-12.371836-45.066559 4.929652-90.101314 10.304563-135.136069 15.520453-2.385315-5.692953-0.954126-8.968786 5.629345-9.60487 43.889803-4.420785 87.747803-9.191415 131.66941-13.262354 12.530857-1.176756 17.301488 7.442184 12.02199 19.718607z" fill="#DDE5EC" p-id="1572"></path></svg>