<?xml version="1.0" standalone="no"?><!DOCTYPE svg PUBLIC "-//W3C//DTD SVG 1.1//EN" "http://www.w3.org/Graphics/SVG/1.1/DTD/svg11.dtd"><svg t="1552981532019" class="icon" style="" viewBox="0 0 1024 1024" version="1.1" xmlns="http://www.w3.org/2000/svg" p-id="42233" xmlns:xlink="http://www.w3.org/1999/xlink" width="200" height="200"><defs><style type="text/css"></style></defs><path d="M761.15456 323.03104c0.64 0.17408 1.19808 0.2816 1.7408 0.34816-0.58368-0.09728-1.17248-0.19456-1.7408-0.34816zM648.25344 606.70976c-15.5392-53.79072-62.0032-89.54368-116.70528-89.81504-56.10496-0.29184-104.90368 37.85728-119.09632 93.0816-13.34272 51.82976 9.45664 109.98272 60.32896 133.21728 27.41248 12.52864 31.75424 28.24192 30.28992 53.0432-1.3056 22.20032-1.79712 48.10752 29.54752 46.94016 27.4176-1.01888 28.83072-25.25184 26.00448-45.74208-4.0192-28.9536 7.54688-42.56256 33.6128-55.72096 49.73568-25.1136 71.02976-83.09248 56.01792-135.00416z m-115.38432 106.5472c-39.68 0.9984-75.1104-32.11776-76.65152-71.64928-1.63328-41.65632 33.55136-78.08 75.15136-77.85472 39.66464 0.24064 73.95328 34.39104 74.3168 74.02496 0.384 39.6032-33.30048 74.50624-72.81664 75.47904z" fill="#cdcdcd" p-id="42234"></path><path d="M878.08512 387.12832c-27.36128-0.21504-32.91648-1.92-32.256-24.5248 1.41312-47.01696 1.07008 7.47008 0.25088-39.57248-2.8672-162.52928-127.09376-306.69312-288.42496-320.22528-160.45568-13.49632-304.86016 95.1808-337.85344 254.0032-6.64576 67.80928-5.79072 30.34624-6.13376 96.3072-0.13824 26.92096-6.29248 34.15552-33.78176 34.00192-66.85184-0.38912-91.01312 33.98656-91.17696 100.89472-0.3584 144.12288-0.41472 288.24576 0.01536 432.37376 0.2048 69.00736 25.40032 101.6064 95.34976 101.79584 114.7136 0.29184 229.42208 0.06656 344.1408 0.06656 116.16768 0 232.36608 0.2048 348.53888-0.06656 72.15104-0.16896 96.22016-32.65536 96.34304-105.3952 0.23552-141.18912 0.19456-282.36288 0.01536-423.54688-0.09728-73.50784-21.49376-105.52832-95.0272-106.112zM282.9056 350.19776c2.18624-42.49088 0.30208 16.4096 0.62464-26.19904 1.06496-141.48096 108.3904-250.9312 246.19008-251.27936 138.34752-0.34304 247.00416 108.5184 248.32512 249.12384 0.42496 44.06784-1.47968-13.3632 0.65536 30.60224 1.27488 26.10688-4.46976 35.52256-33.08032 34.5856-71.9104-2.34496-143.9488-0.77824-215.94112-0.77824-70.528 0-141.11232-1.67936-211.54816 0.79872-30.25408 1.0752-30.83264-9.46688-35.2256-36.85376z m586.46528 608.85504c-113.27488-1.96608-227.80416 0-341.10976 0-111.83104 0-223.06816 0-334.26432-0.10752-31.16032 0.44544-44.29312-12.416-43.81184-47.46752 1.95072-138.28608 1.60768-276.62336 0.1792-414.94016-0.31232-30.54592 8.18176-46.86336 39.66464-46.68928 226.59584 1.23904 453.21216 1.35168 679.81312-0.09728 34.03264-0.21504 41.83552 17.44896 41.472 49.5104a17090.7648 17090.7648 0 0 0 0.0256 410.5216c0.38912 32.6656-8.51968 49.85344-41.96864 49.26976z" fill="#cdcdcd" p-id="42235"></path></svg>