<?xml version="1.0" standalone="no"?><!DOCTYPE svg PUBLIC "-//W3C//DTD SVG 1.1//EN" "http://www.w3.org/Graphics/SVG/1.1/DTD/svg11.dtd"><svg t="1553148890644" class="icon" style="" viewBox="0 0 1121 1024" version="1.1" xmlns="http://www.w3.org/2000/svg" p-id="23437" xmlns:xlink="http://www.w3.org/1999/xlink" width="218.9453125" height="200"><defs><style type="text/css"></style></defs><path d="M52.125595 592.137012h1015.961941v52.125595H52.125595z" fill="#FBDC2B" p-id="23438"></path><path d="M1031.063749 0H89.392959A89.392959 89.392959 0 0 0 0 89.149382v608.943863a89.392959 89.392959 0 0 0 89.392959 89.149381h337.842055v184.631779h-125.686013a26.062797 26.062797 0 1 0 0 52.125595h517.358706a26.062797 26.062797 0 1 0 0-52.125595h-125.686013v-185.606089h337.842055A89.392959 89.392959 0 0 0 1120.456708 697.118934v-608.943863A89.392959 89.392959 0 0 0 1031.063749 0z m-389.724073 970.900095h-161.73549v-184.631779h161.491913z m426.991437-378.763083v104.981922a37.023787 37.023787 0 0 1-37.023787 37.023787H89.392959a37.023787 37.023787 0 0 1-37.023787-37.023787v-608.943863a37.023787 37.023787 0 0 1 37.023787-36.049476h941.67079a37.023787 37.023787 0 0 1 37.023787 37.023787z" fill="#222222" p-id="23439"></path><path d="M765.077069 257.217888l3.166509 8.525214-39.215985 48.715509a25.81922 25.81922 0 0 0 0 30.203615l39.215985 47.254044-3.166509 8.525214a196.323501 196.323501 0 0 1-36.049476 65.765938l-6.576594 6.820171-60.650809-10.230257a24.357755 24.357755 0 0 0-24.357754 15.101808l-21.191247 60.650808-8.281636 1.705043a219.219791 219.219791 0 0 1-93.2902 0l-9.743102-1.705043-19.729781-58.945766a24.357755 24.357755 0 0 0-24.357754-15.101807l-62.355852 9.986679-6.576594-6.820171a110.827783 110.827783 0 0 1-19.973358-29.229306 161.248335 161.248335 0 0 1-16.319696-38.728829l-3.166508-8.525214 40.921027-47.254044a24.357755 24.357755 0 0 0 0-28.742151l-39.215984-48.715509 3.166508-8.525214a208.258801 208.258801 0 0 1 37.754519-67.47098l6.576594-6.820171L460.36156 194.862036a26.549952 26.549952 0 0 0 26.79353-15.101808L507.859182 121.788773l8.281636-1.705043a210.694577 210.694577 0 0 1 91.828735 0l9.743102 1.705043 19.729781 57.240723a24.357755 24.357755 0 0 0 26.062797 15.83254l60.650809-8.525214 6.576594 6.820171a119.352997 119.352997 0 0 1 19.729781 30.203616 333.944814 333.944814 0 0 1 14.85823 33.613701z m-45.792578-20.216937a113.750714 113.750714 0 0 0-11.691722-17.78116l-42.626071 5.115128a57.240723 57.240723 0 0 1-60.650808-38.72883L591.40628 146.146527a173.427212 173.427212 0 0 0-58.945766 0l-14.85823 40.433873a56.266413 56.266413 0 0 1-62.112274 37.023786L414.081827 216.784015a196.079924 196.079924 0 0 0-22.896289 40.433873l27.76784 33.613701a59.432921 59.432921 0 0 1 0 73.073264l-27.524263 33.126546a155.158896 155.158896 0 0 0 11.448145 24.357754 60.407231 60.407231 0 0 0 11.204567 17.050428l44.331113-6.820171a57.240723 57.240723 0 0 1 60.650809 38.72883l13.153187 40.433872a182.926736 182.926736 0 0 0 60.650809 0L608.943863 467.668887a55.292103 55.292103 0 0 1 60.650809-37.023787l40.921027 6.820171A156.620362 156.620362 0 0 0 730.732636 397.031399L704.426261 365.366318a59.676499 59.676499 0 0 1-1.705043-73.073264L730.732636 258.922931c-3.166508-6.820171-6.576594-13.396765-11.448145-21.92198z" fill="#222222" p-id="23440"></path><path d="M560.228354 405.80019a76.239772 76.239772 0 1 1 73.073264-76.239771 75.996194 75.996194 0 0 1-73.073264 76.239771z m0-33.857278a42.382493 42.382493 0 1 0-41.164605-42.382493A41.408183 41.408183 0 0 0 560.228354 371.942912z" fill="#FBDC2B" p-id="23441"></path></svg>