<?xml version="1.0" standalone="no"?><!DOCTYPE svg PUBLIC "-//W3C//DTD SVG 1.1//EN" "http://www.w3.org/Graphics/SVG/1.1/DTD/svg11.dtd"><svg t="1553148613878" class="icon" style="" viewBox="0 0 1024 1024" version="1.1" xmlns="http://www.w3.org/2000/svg" p-id="6429" xmlns:xlink="http://www.w3.org/1999/xlink" width="200" height="200"><defs><style type="text/css"></style></defs><path d="M992 1024H16a381.44 381.44 0 0 1 378.88-384h218.24A381.44 381.44 0 0 1 992 1024z" fill="#ED7149" p-id="6430"></path><path d="M622.4 640A384.8 384.8 0 0 1 1008 1024H512V640h110.4z" fill="#E94E1B" p-id="6431"></path><path d="M224 672h64v352h-64z" fill="#F9B233" p-id="6432"></path><path d="M736 672h64v352h-64z" fill="#F9B233" p-id="6433"></path><path d="M784 272h-62.08A98.08 98.08 0 0 1 624 173.76V112a80 80 0 0 1 80-80h2.72A77.12 77.12 0 0 1 784 109.28V272z" fill="#CBBBA0" p-id="6434"></path><path d="M624 32v146.08A93.76 93.76 0 0 0 717.76 272H784v-48h-64s-96 9.76-96-192z" fill="#988C78" p-id="6435"></path><path d="M419.2 272H224v-77.12A178.72 178.72 0 0 1 402.4 16H624v50.72A205.12 205.12 0 0 1 419.2 272z" fill="#CBBBA0" p-id="6436"></path><path d="M624 16v52.32A203.52 203.52 0 0 1 420.8 272H224v-52.32h192S597.6 240 624 16" fill="#988C78" p-id="6437"></path><path d="M612.64 171.68L529.6 240a202.56 202.56 0 0 1-109.28 32H272v400a240 240 0 1 0 480 0V272h-34.4c-28.16 0-87.68-80-104.96-100.32z" fill="#F3D1BB" p-id="6438"></path><path d="M768 352a48 48 0 0 1 0 96" fill="#E8C0A8" p-id="6439"></path><path d="M256 448a48 48 0 0 1 0-96" fill="#F3D1BB" p-id="6440"></path><path d="M752 672a240 240 0 1 1-480 0v-48s74.08 37.92 144 0h192s76 33.92 144 0v48z" fill="#CBBBA0" p-id="6441"></path><path d="M512 912a240 240 0 0 0 240-240v-48c-68 33.92-144 0-144 0s29.92 249.92-96 288" fill="#988C78" p-id="6442"></path><path d="M496 944h32v32h-32zM496 992h32v32h-32z" fill="#1D1D1B" p-id="6443"></path><path d="M640 672a32 32 0 0 1-32-32v-16a48 48 0 1 0-48 48h80" fill="#988C78" p-id="6444"></path><path d="M384 672a32 32 0 0 0 32-32v-16a48 48 0 1 1 48 48h-80" fill="#988C78" p-id="6445"></path><path d="M768.96 644.32V464a64 64 0 0 0 0-128v-48h32V108.32A92.48 92.48 0 0 0 708.48 16 99.52 99.52 0 0 0 640 42.72v-16A26.24 26.24 0 0 0 614.4 0H397.12A189.76 189.76 0 0 0 208 189.44V288h48v48h-1.92a64 64 0 1 0 0 128h2.24v180.32C100.8 695.52 0 843.52 0 1024h32c0-142.4 67.04-262.72 176-324.16L209.28 1024h32L240 684.32q8.8-3.84 17.92-7.04a257.6 257.6 0 0 0 14.56 80L273.44 1024h32V819.68a257.6 257.6 0 0 0 27.84 33.28A252.64 252.64 0 0 0 512 928a256 256 0 0 0 208-107.52V1024h32V760.96a253.92 253.92 0 0 0 16-83.2q8.32 3.04 16 6.56V1024h32l0.8-324.16a326.88 326.88 0 0 1 110.24 101.44A392.32 392.32 0 0 1 992 1024h32c0-180.16-99.68-327.84-255.04-379.52zM800 400a32 32 0 0 1-31.2 32v-64A32 32 0 0 1 800 400zM708.48 48a60.96 60.96 0 0 1 60.8 60.8V256H720a80 80 0 0 1-80-80V115.68A68.16 68.16 0 0 1 708.48 48z m-469.44 141.44A158.24 158.24 0 0 1 397.12 32h212v39.04A185.44 185.44 0 0 1 423.84 256H239.04v-66.56zM423.84 288a217.12 217.12 0 0 0 185.28-104A112 112 0 0 0 720 288h16.8v311.04a115.2 115.2 0 0 1-119.36-4.16A64 64 0 0 0 560 560h-3.04a48 48 0 0 0 3.04-16v-16h-32v16a16 16 0 0 1-32 0v-16h-32v16a48 48 0 0 0 2.88 16H464a64 64 0 0 0-56.8 34.72 113.6 113.6 0 0 1-118.56 4.96L288 288h135.68z m73.12 336a32 32 0 0 1-32 32h-35.2a48 48 0 0 0 2.24-16v-16a32 32 0 0 1 64 0z m64-32a32 32 0 0 1 32 32v16a48 48 0 0 0 2.88 16H560a32 32 0 1 1 0-64zM254.88 432a32 32 0 1 1 0-64h1.92v64h-2.24zM512 896a223.2 223.2 0 0 1-208-144 226.4 226.4 0 0 1-14.4-80v-37.6a151.84 151.84 0 0 0 56.64 11.36 137.28 137.28 0 0 0 53.76-11.36V640a16 16 0 0 1-16 16v32h80a64 64 0 0 0 48-21.92A64 64 0 0 0 560 688h80v-32a16 16 0 0 1-16-16v-5.92a152.16 152.16 0 0 0 57.92 11.84 137.28 137.28 0 0 0 54.88-11.52V672a222.88 222.88 0 0 1-14.72 80l-1.28 3.2A224.96 224.96 0 0 1 512 896z" fill="#1D1D1B" p-id="6446"></path><path d="M480 704h64v32h-64z" fill="#1D1D1B" p-id="6447"></path></svg>