<?xml version="1.0" standalone="no"?><!DOCTYPE svg PUBLIC "-//W3C//DTD SVG 1.1//EN" "http://www.w3.org/Graphics/SVG/1.1/DTD/svg11.dtd"><svg t="1552982012738" class="icon" style="" viewBox="0 0 1024 1024" version="1.1" xmlns="http://www.w3.org/2000/svg" p-id="1153" xmlns:xlink="http://www.w3.org/1999/xlink" width="200" height="200"><defs><style type="text/css"></style></defs><path d="M476.16 261.12c-240.64 0-384 243.2-384 243.2s166.4 238.08 384 238.08 384-238.08 384-238.08-143.36-243.2-384-243.2z m245.76 335.36c-79.36 66.56-163.84 110.08-248.32 110.08s-168.96-40.96-248.32-110.08c-28.16-25.6-53.76-48.64-76.8-76.8-5.12-5.12-7.68-10.24-12.8-15.36 2.56-5.12 7.68-10.24 10.24-15.36C166.4 460.8 192 435.2 217.6 409.6c76.8-69.12 161.28-112.64 256-112.64s179.2 43.52 256 112.64c28.16 25.6 48.64 51.2 71.68 79.36 2.56 5.12 7.68 10.24 10.24 15.36-2.56 5.12-7.68 10.24-12.8 15.36-20.48 23.04-46.08 51.2-76.8 76.8z" fill="#999999" p-id="1154"></path><path d="M473.6 348.16c-79.36 0-140.8 64-140.8 140.8 0 79.36 64 140.8 140.8 140.8 79.36 0 140.8-64 140.8-140.8s-64-140.8-140.8-140.8z m0 243.2c-56.32 0-99.84-46.08-99.84-99.84s46.08-99.84 99.84-99.84 99.84 46.08 99.84 99.84c2.56 53.76-43.52 99.84-99.84 99.84z" fill="#999999" p-id="1155"></path></svg>