<?xml version="1.0" standalone="no"?><!DOCTYPE svg PUBLIC "-//W3C//DTD SVG 1.1//EN" "http://www.w3.org/Graphics/SVG/1.1/DTD/svg11.dtd"><svg t="1553148771796" class="icon" style="" viewBox="0 0 1024 1024" version="1.1" xmlns="http://www.w3.org/2000/svg" p-id="19573" xmlns:xlink="http://www.w3.org/1999/xlink" width="200" height="200"><defs><style type="text/css"></style></defs><path d="M637.44 318.464H396.288c-12.288 0-22.016-9.728-22.016-22.016V122.88c0-12.288 9.728-22.016 22.016-22.016h241.152c12.288 0 22.016 9.728 22.016 22.016v173.568c-0.512 12.288-10.24 22.016-22.016 22.016zM328.704 779.776H176.128c-7.168 0-13.312-5.632-13.312-13.312v-149.504c0-7.168 5.632-13.312 13.312-13.312h152.576c7.168 0 13.312 5.632 13.312 13.312v149.504c0 7.168-5.632 13.312-13.312 13.312z" fill="#5EBE8B" p-id="19574"></path><path d="M592.896 779.776H440.32c-7.168 0-13.312-5.632-13.312-13.312v-149.504c0-7.168 5.632-13.312 13.312-13.312h152.576c7.168 0 13.312 5.632 13.312 13.312v149.504c0 7.168-5.632 13.312-13.312 13.312z" fill="#F6C244" p-id="19575"></path><path d="M857.6 779.776h-152.576c-7.168 0-13.312-5.632-13.312-13.312v-149.504c0-7.168 5.632-13.312 13.312-13.312h152.576c7.168 0 13.312 5.632 13.312 13.312v149.504c-0.512 7.168-6.144 13.312-13.312 13.312z" fill="#5EBE8B" p-id="19576"></path><path d="M529.408 435.2V318.464h-25.6V435.2H239.616v168.448h25.6V460.8H768v142.848h25.6V435.2z" fill="#6E72DF" p-id="19577"></path></svg>